# xmcd
#
# Track frame offsets: 
#        150
#        15625
#        39550
#
# Disc length: 770 seconds
#
# Revision: 0
# Processed by: cddbd v1.5.2PL0 Copyright (c) Steve Scherf et al.
# Submitted via: ExactAudioCopyFreeDBPlugin 1.0
#
DISCID=1a030003
DTITLE=P.M. Sampson - Hot Bodies On The Beach
DYEAR=1991
DGENRE=Hip-Hop
TTITLE0=Hot Bodies On The Beach (Radio Edit)
TTITLE1=Hot Bodies On The Beach (Nasty Beach Mix)
TTITLE2=Tell Me Why
EXTD=
EXTT0=
EXTT1=
EXTT2=
PLAYORDER=
